<svg xmlns="http://www.w3.org/2000/svg" viewBox="0 0 1024 1024" role="img" aria-label="Zenthex brand mark">
  <defs>
    <radialGradient id="aura" cx="50%" cy="42%" r="62%">
      <stop offset="0%" stop-color="#1fe6d2" stop-opacity=".24"/>
      <stop offset="42%" stop-color="#6f8cff" stop-opacity=".10"/>
      <stop offset="100%" stop-color="#05070b" stop-opacity="0"/>
    </radialGradient>
    <linearGradient id="shell" x1="18%" y1="10%" x2="82%" y2="92%">
      <stop offset="0%" stop-color="#f8fafc"/>
      <stop offset="20%" stop-color="#8792a6"/>
      <stop offset="52%" stop-color="#202733"/>
      <stop offset="78%" stop-color="#dbe4f0"/>
      <stop offset="100%" stop-color="#687386"/>
    </linearGradient>
    <linearGradient id="face" x1="25%" y1="12%" x2="78%" y2="88%">
      <stop offset="0%" stop-color="#171d27"/>
      <stop offset="48%" stop-color="#080b10"/>
      <stop offset="100%" stop-color="#121821"/>
    </linearGradient>
    <linearGradient id="zline" x1="18%" y1="15%" x2="82%" y2="86%">
      <stop offset="0%" stop-color="#f8fafc"/>
      <stop offset="45%" stop-color="#13e5c6"/>
      <stop offset="100%" stop-color="#7c96ff"/>
    </linearGradient>
    <linearGradient id="edge" x1="0%" y1="0%" x2="100%" y2="100%">
      <stop offset="0%" stop-color="#ffffff" stop-opacity=".92"/>
      <stop offset="100%" stop-color="#8b95a7" stop-opacity=".40"/>
    </linearGradient>
    <filter id="shadow" x="-30%" y="-30%" width="160%" height="160%">
      <feDropShadow dx="0" dy="34" stdDeviation="34" flood-color="#000000" flood-opacity=".58"/>
      <feDropShadow dx="0" dy="0" stdDeviation="20" flood-color="#18e6c9" flood-opacity=".16"/>
    </filter>
  </defs>

  <rect width="1024" height="1024" fill="#05070b"/>
  <circle cx="512" cy="500" r="430" fill="url(#aura)"/>

  <g filter="url(#shadow)">
    <path d="M512 88 842 276v376L512 936 182 652V276L512 88Z" fill="url(#shell)"/>
    <path d="M512 127 807 297v335L512 887 217 632V297L512 127Z" fill="url(#face)"/>
    <path d="M512 127 807 297v335L512 887 217 632V297L512 127Z" fill="none" stroke="url(#edge)" stroke-width="10" opacity=".72"/>

    <path d="M351 326h314c28 0 42 34 22 54L466 602h207c28 0 43 34 23 54L541 811c-19 19-52 6-52-22v-78H354c-29 0-43-35-22-55l220-219H351c-29 0-43-34-23-55l154-154c20-20 54-6 54 22v76H351Z"
      fill="url(#zline)"/>
    <path d="M351 326h314c28 0 42 34 22 54L466 602h207c28 0 43 34 23 54L541 811c-19 19-52 6-52-22v-78H354c-29 0-43-35-22-55l220-219H351c-29 0-43-34-23-55l154-154c20-20 54-6 54 22v76H351Z"
      fill="none" stroke="#ffffff" stroke-width="6" opacity=".28"/>

    <circle cx="512" cy="512" r="28" fill="#f5c76b"/>
    <circle cx="512" cy="512" r="58" fill="none" stroke="#f5c76b" stroke-width="4" opacity=".24"/>
  </g>

  <path d="M512 88v120M182 276l104 60M842 276l-104 60M182 652l104-60M842 652l-104-60M512 936V816"
    stroke="#92a5ff" stroke-width="8" stroke-linecap="round" opacity=".34"/>
</svg>
